# xmcd
#
# Track frame offsets:
# 150
# 15266
# 31391
# 45859
# 63070
# 78914
# 91556
# 110582
# 130495
# 145979
# 157502
# 172313
# 183418
# 197301
# 207114
#
# Disc length: 3010 seconds
#
#
# Revision: 2
# Processed by: cddbd v1.5.1PL0 Copyright (c) Steve Scherf et al.
# Submitted via: FreeRIP 2.91 
#
DISCID=ae0bc00f
DTITLE=Boca Livre - Sem Limite [CD 2)
DYEAR=2001
DGENRE=MPB
TTITLE0=Quem Tem a Viola
TTITLE1=Canção da América (Unencounter) (ao vivo c/ 14 Bis)
TTITLE2=Chegou no Vento
TTITLE3=Duas Praias (ao vivo)
TTITLE4=Mistérios
TTITLE5=Bicicleta
TTITLE6=Desenredo
TTITLE7=Folia
TTITLE8=Menina dos Olhos
TTITLE9=Nossa Dança
TTITLE10=Feito Mistério
TTITLE11=Nossos Momentos
TTITLE12=Neném
TTITLE13=Arado
TTITLE14=Paula e Bebeto (ao vivo c/ 14 Bis)
EXTD=
EXTT0=
EXTT1=
EXTT2=
EXTT3=
EXTT4=
EXTT5=
EXTT6=
EXTT7=
EXTT8=
EXTT9=
EXTT10=
EXTT11=
EXTT12=
EXTT13=
EXTT14=
PLAYORDER=
